# xmcd
# Copyright (C) 1995-1998 Ti Kan
#
# Track frame offsets:
#       150
#       8605
#       25467
#       41067
#       58307
#       76905
#       96327
#       111540
#       129790
#       144465
#       146567
#       162212
#       176975
#       204672
#       220025
#       237315
#       246655
#
# Disc length: 3326 seconds
#
# Revision: 0
# Processed by: cddbd v1.4PL0 Copyright (c) Steve Scherf et al.
# Submitted via: CD-Transfer v1.0
#
DISCID=fc0cfc11
DTITLE=2 Shy - Wonderland
DYEAR=1998
DGENRE=
TTITLE0=Intro
TTITLE1=Wonderland
TTITLE2=I'd Love You To Want Me
TTITLE3=No Reason No Rhyme
TTITLE4=You Give Me All I Need
TTITLE5=I See The Light
TTITLE6=Everything
TTITLE7=Open Your Heart
TTITLE8=Hey Sicilian
TTITLE9=Interlude
TTITLE10=Don't Break My Heart
TTITLE11=Everything
TTITLE12=I'd Love You To Want Me
TTITLE13=You Give Me All I Need
TTITLE14=I'd Love You To Want Me
TTITLE15=You Give Me All I Need
TTITLE16=Outro
EXTD=
EXTT0=
EXTT1=
EXTT2=
EXTT3=
EXTT4=
EXTT5=
EXTT6=
EXTT7=
EXTT8=
EXTT9=
EXTT10=
EXTT11=
EXTT12=
EXTT13=
EXTT14=
EXTT15=
EXTT16=
PLAYORDER=
